M48
METRIC,TZ
T01C.5
T02C1.
T03C1.2
T04C2.7
T05C2.7
;LEADER: 12 
;HEADER: 
;CODE  : ASCII 
;FILE  : BVP_04V3-1-2.drl for  ... layers TOP and BOTTOM
;T01 Holesize 1. = 0.500000 Tolerance = +0.000000/-0.000000 PLATED MM Quantity = 722
;T02 Holesize 2. = 1.000000 Tolerance = +0.000000/-0.000000 PLATED MM Quantity = 233
;T03 Holesize 3. = 1.200000 Tolerance = +0.000000/-0.000000 PLATED MM Quantity = 9
;T04 Holesize 4. = 2.700000 Tolerance = +0.000000/-0.000000 PLATED MM Quantity = 4
;T05 Holesize 5. = 2.700000 Tolerance = +0.000000/-0.000000 NON_PLATED MM Quantity = 4
%
G90
T01
X425450Y1382830
Y514350
X444500Y1382830
Y501650
X482600Y1574800
Y1428750
X463550Y1587500
Y1428750
X425450Y1581150
Y1428750
X444500Y1606550
Y1428750
X387350Y1593850
Y539750
X406400Y1568450
Y527050
X920750Y1352550
Y927100
X825500Y1352550
Y698500
X539750Y533400
Y698500
X806450Y1352550
Y685800
X787400Y1352550
Y660400
X1028700Y857250
Y704850
X158750Y571500
Y685800
X1219200Y203200
X901700Y1352550
Y838200
X1219200Y685800
Y838200
X1339850Y749300
Y914400
X844550Y1352550
Y869950
Y762000
X1257300Y406400
Y812800
X920750
Y869950
X863600Y1352550
Y869950
Y774700
X1314450
Y711200
X1276350Y279400
Y800100
Y508000
X939800Y800100
Y869950
X355600Y1409700
X374650Y1511300
X367570Y1619250
X355600Y1530350
X406400Y2114550
Y2070100
Y2012950
Y1841500
X165100Y819150
X1403350Y977900
X1524000Y711200
X241300Y1435100
Y1511300
Y1555750
Y1631950
X215900Y1454150
X203200Y1441450
X215900Y1574800
X190500Y1517650
X158750Y1574800
X88900
Y1498600
X146050
X-6350
Y1593850
X114300Y1644650
X177800Y1625600
X241300Y1657350
X127000Y1670050
X254000Y1689100
X107950Y1746250
Y1720850
X133350
X152400Y1708150
X-6350
X177800Y1746250
X159750Y741950
X1066800Y857250
Y704850
X482600Y673100
Y546100
X165600Y755150
X137250Y2023200
X139700Y1879600
R04Y25400
X88900Y2006600
X6350Y1828800
R02Y127000
Y2190750
X31750Y2216150
X101600
X196850Y2197100
X101600Y2082800
Y2190750
X228600Y2171700
X177800Y2127250
X228600Y2114550
X196850Y2095500
X228600Y2057400
Y1968500
Y1936750
Y1879600
X139700Y1854200
Y1822450
X241300
X95250
X139700Y2082800
Y2006600
X165100Y844550
X158750Y806450
X159250Y831350
Y767850
X254000Y1644650
X241300Y1619250
Y1498600
Y1422400
X254000Y1530350
X165100Y781050
X328190Y884800
X273050Y850900
X271400Y736600
X330730Y711200
X330200Y596900
X229400Y626300
X1143400Y1270300
X1123950Y1295400
X1105400Y1330300
X1085400
X1071400Y1314300
Y1348300
X1127400
X1193400
Y1284300
Y1232300
X1195400Y1186300
X1191400Y1144300
X1179400Y1108300
X1233400Y1100300
X1241400Y1056300
X1223400Y1058300
X1215400Y1104300
X1205400Y1158300
X1259400Y1104300
Y1142300
X1247400Y1188300
X1253400Y1236300
X1231400
X1231900Y1289050
Y1365250
X1257300
X1265400Y1280300
X1295400Y1274300
X1365250Y1327150
X1377400Y1320300
X1365250Y1371600
X1415400Y1320300
X1429400Y1304300
X1333400Y1278300
X1377400Y1280300
X1413400Y1266300
X1428750Y1263650
X1329400Y1236300
X1331400Y1190300
X1367360Y1187140
X1331400Y1146300
X1286400Y1100300
Y1059300
X1272400Y1038300
X1228400Y1030300
X1231400Y1001300
X1203400Y1000300
X1193800Y1028700
X1161400Y1000300
X1149400Y1012300
X1041400Y1030300
X1389620Y1110820
Y1187140
X1320400Y989300
X1416050Y1003300
X1365400Y1114300
X1330400Y1094300
X1375400Y1024300
X1146400Y1057300
X1193800Y1054100
X1069400Y1057300
X1087400
X1099400Y1048300
X1073400Y1020300
X1039400Y998300
X1274400Y1236300
X1301400
X1428750Y1238250
X1473200Y1130300
X1245400Y1329300
X1165400Y1319300
X1160400Y1224300
X1057400Y986300
X1101400Y1070300
X1043400Y1134300
X1061400Y1118300
X1050400Y1102300
X1035400Y1116300
Y1272300
Y1348300
X1037400Y1168300
X1105400Y1170300
X1169400
X1112400Y1120300
X1155400
Y1152300
X1120400Y1209300
X1070400Y1229300
X1081400Y1208300
X1071400Y1196300
X1121400Y1232300
X1145400Y1209300
X1279400Y1190300
X1349400Y1236300
X1343400Y1252300
X1327150Y1365250
X1295400
X1311400Y1326300
X1323400
X1297400
X368300Y1435100
X589580Y1499880
X508000Y1490600
X547380Y1455120
X368300Y1555750
X544820Y1542080
X666750Y2108200
X425450Y2114550
X692150Y2051050
X546100Y2082800
X717550Y1993900
X584200Y2025650
X742950Y1936750
X610230Y1967430
X504220Y1937820
X502340Y1880670
X768350Y1879600
X628650Y1911350
X616420Y1786670
X716440Y1804520
X616720Y1823980
R02X-101600
X1190380Y1197640
Y1299240
X1258800Y991670
X1360400
X1390650Y1073150
X370020Y851970
R04X101600
X1014930Y938410
X984250Y1066800
X995380Y1139690
Y1241290
X704770Y1293080
R02X-101600
X326080Y1223350
X325970Y1121750
X325860Y1020150
X1083500Y851970
X1185100
X1280530Y817110
X1365250Y831850
X1390650Y946150
X1286670Y964130
X1185070
X1011770Y709380
X910170
X830260Y646630
X728660
X552450Y647700
X527050
X495300Y584200
X552450
X708040Y585270
X809640
X909320Y604950
X155010Y922570
X256610
X276420Y1022220
X276670Y1123820
X276920Y1225420
X187710Y1274030
X86110
X-2700Y1224680
R02Y-101600
X9500Y920610
X-2700Y819750
R05Y-101600
X907810Y532330
X806210
X853450Y442380
X925290Y370540
X997130Y298700
X1068980Y226850
X1140820Y155010
X1235610Y191570
X1308100Y165100
X1365250Y215900
X1238780Y261880
X1308100Y266700
X1365250Y317500
X1247180Y366680
X1308100Y393700
X1454150Y444500
X1308100Y469900
X1429270Y496370
X1308100Y571500
X1424460Y597970
X1308100Y673100
X1115230Y709380
X1032220Y650800
X934520Y1934130
R05Y-101600
X1092200Y1403350
X1136320Y1409320
R02X101600
X1400720Y1328220
X1391720Y1154830
X1485900Y1073150
X1517650Y768350
X1537770Y691640
R05Y-101600
X1539400Y1097180
Y1503580
Y1605180
R04Y101600
X1422400Y2108200
X1277580Y2237900
R07X-101600
X444500Y2241550
X336550
X554050Y2179120
X655650
X745430Y2131540
X817270Y2059700
X1147250Y109610
X1075410Y181450
X1003570Y253290
X931720Y325140
X859880Y396980
X788040Y468820
X700060Y519630
X598460
X497650Y532330
X406290Y487880
X304690
X203110Y486130
X101570Y489750
X95630Y388330
X136790Y295440
X208630Y223590
X280470Y151750
X352320Y79910
X447920Y45520
R09X101600
X1428750Y114300
X1484830Y202880
X-2700Y260100
R02Y-101600
X1422400Y-19050
X1286430Y-1070
R09X-101600
X295620Y65900
X223780Y137740
X151940Y209580
X96790Y124250
X57550Y30530
X148170Y-15400
R12X101600
X1437800Y1468380
R05Y101600
X1396620Y2069260
X1320280Y2136300
R02X-101600
X1003300Y2133600
X927100Y2146300
X969430Y2051230
X1030660Y1970160
X1036120Y1868710
R03Y-101600
X1122810Y1510920
R02X101600
X174830Y1024170
X175080Y1125770
X648660Y953570
X749480Y966110
X734410Y1191480
X750220Y1091120
X523970Y982170
X481380Y1074410
X548030Y1191480
X981470Y458030
X1053310Y386190
X1146900Y425740
X1124090Y524750
X414840Y386280
X313240
X211790Y380780
X274810Y301090
X346660Y229250
X418500Y157410
X519580Y147120
R04X101600
X877030Y236150
X805190Y307990
X733340Y379840
X639200Y418030
X1137720Y1612520
X1239320
X1336200Y1643130
R03Y101600
X1283350Y2034700
X1181750
X1137530Y1943230
X1137720Y1841630
Y1740030
X560070Y313610
X463590Y281750
X559680Y248720
X661280
X374870Y1296450
X324070
X273270Y1258350
X-6130Y1277400
X158970Y1385350
X101820
X108170Y1429800
X-6130
X171670Y648750
Y585250
X273270Y699550
X279620Y610650
X324070Y858300
Y750350
X374650Y736600
Y711200
X501870Y712250
X660620
X863820
X774700Y711200
X457200Y647700
Y584200
X374650
Y647700
X203200Y546100
X1454150Y647700
Y546100
Y342900
Y241300
X1485900Y342900
Y539750
X1498600Y717550
X1511300Y647700
Y438150
Y234950
X1422400Y139700
X1409700Y50800
X1208200Y22800
X1020200
X834200
R02X-210000
X316200Y80800
X198200Y198800
X101600Y292100
Y254000
X1270000Y901700
X939800Y946150
X990600Y850900
X939800Y1117600
Y1270000
X965200Y1295400
X977900Y1282700
Y1384300
X984250Y1454150
X620130Y1383590
X546130
X503930Y1418840
X586480
X464200Y1381600
X649980Y1387090
Y1520440
X618230Y1552190
X374650Y1384300
X396200Y1382800
Y1510800
X434200Y1544800
X472300Y1560800
X454200Y1498800
Y1296800
X416200
X501650Y1612900
X463550Y1606550
X400050Y1619250
X355600Y1689100
X400050
X463550
Y1739900
X571500Y1689100
Y1619250
X641350Y1739900
X736600
Y1651000
X647700Y1600200
X622300Y1619250
X647700Y1689100
X685800Y1498600
X622300Y1441450
X596900Y1384300
X396200Y1208800
X416200Y1068800
X434200Y972800
X396200Y890800
X457200Y1155700
X374650Y984250
X774700Y1295400
X796200Y1336800
X854200
X910450
X892200Y1296800
X834200
X472200Y1478800
X834250Y1196800
X872200Y1016800
X910200Y1196800
X796200Y1116800
X816200Y942800
X910450Y976800
X1454150Y755650
X723900Y1473200
Y1384300
X641350Y1454150
X336550Y1822450
X425450Y1968500
Y1911350
Y1993900
Y2051050
X431800Y2197100
X457200Y736600
Y546100
X635000Y615950
X1079500Y736600
X1016000
X1206500
X1327150
X1206500Y711200
Y533400
Y292100
X1257300Y158750
X69850Y1123950
X361950Y1708150
Y1752600
X463550Y1803400
X438150
X419100Y1784350
X482600
X1085850Y1454150
X1066800Y1466850
X1041400
X1022350Y1460500
X1333500Y95250
X1365250Y419100
R02Y101600
X1485900Y647700
X1390650Y736600
X1403350Y768350
X1390650Y831850
X1035050Y1403350
X396700Y648000
X434700
X415700Y736000
Y648000
Y711000
X457200Y711200
X1543050Y114300
X1498600Y139700
X1354700Y76000
X1302700Y24000
X1422400Y2241550
X1543050Y2108200
X1447800Y1168400
X1428750Y1441450
Y1054100
X1447800Y863600
X1416050Y831850
X1365250Y965200
X1416050Y895350
X1479550Y781050
X1543050
X1428750Y1365250
Y971550
Y927100
X1543050Y1168400
Y1441450
Y1054100
X334660Y1882560
Y1939800
Y1996200
Y2054280
Y2111520
Y2168760
X533400Y1739900
X406400Y1593850
X355600Y1644650
X370700Y1526000
X120650Y2216150
X247650Y2170630
R02Y-57150
Y1994970
X247100Y1937820
Y1880670
X1377950Y977900
X1498600Y698500
X882650Y1352550
Y869950
Y825500
X1238250Y584200
Y825500
Y304800
X1047750Y857250
Y704850
X139700Y558800
Y660400
X1295400Y177800
Y787400
Y609600
Y482600
X958850Y787400
Y869950
T02
X330200Y1733550
X304800
X254000
X203200
X660400Y1422400
Y1454150
X1231900Y1174750
X1263650
X1301750
X1454150Y812800
Y787400
Y711200
Y685800
Y609600
Y584200
Y508000
Y482600
Y406400
Y381000
Y304800
Y279400
Y203200
Y177800
Y914400
Y889000
X25400Y1384300
Y1612900
Y1638300
R08Y25400
Y1409700
Y1866900
Y1892300
R08Y25400
Y1435100
Y2120900
Y2146300
Y2171700
Y1460500
R05Y25400
X50800Y1384300
Y1612900
Y1638300
R08Y25400
Y1409700
Y1866900
Y1892300
R08Y25400
Y1435100
Y2120900
Y2146300
Y2171700
Y1460500
R05Y25400
X76200Y1384300
Y1612900
Y1638300
R08Y25400
Y1409700
Y1866900
Y1892300
R08Y25400
Y1435100
Y2120900
Y2146300
Y2171700
Y1460500
R05Y25400
X25400Y50800
Y279400
Y304800
R08Y25400
Y76200
Y533400
Y558800
R08Y25400
Y101600
Y787400
Y812800
Y838200
Y127000
R05Y25400
X50800Y50800
Y279400
Y304800
R08Y25400
Y76200
Y533400
Y558800
R08Y25400
Y101600
Y787400
Y812800
Y838200
Y127000
R05Y25400
X76200Y50800
Y279400
Y304800
R08Y25400
Y76200
Y533400
Y558800
R08Y25400
Y101600
Y787400
Y812800
Y838200
Y127000
R05Y25400
X146050Y2165350
Y2190750
X603250Y1079500
X628650
X1174750Y933450
X1200150
X692150Y1638300
X717550
X692150Y1612900
X717550
X692150Y1587500
X717550
X692150Y1562100
X717550
X692150Y1536700
X717550
T03
X1092200Y977900
X1187450Y88900
X1339850Y1047750
Y1016000
X1130300Y977900
X1092200Y1028700
X1149350Y1244600
Y1295400
X1187450Y158750
T04
X0Y1333500
X0Y2222500
X0Y0
X0Y889000
T05
X1536700Y889000
Y1333500
Y2222500
Y0
M30
