G04 ================== begin FILE IDENTIFICATION RECORD ==================*
G04 Layout Name:  d:/Project/Circuit/BVP/04v3/pcb/BVP_04V3.brd*
G04 Film Name:    MASK_TOP*
G04 File Format:  Gerber RS274X*
G04 File Origin:  Cadence Allegro 16.6-S026*
G04 Origin Date:  Wed Apr 30 16:30:29 2014*
G04 *
G04 Layer:  PACKAGE GEOMETRY/SOLDERMASK_TOP*
G04 Layer:  PIN/SOLDERMASK_TOP*
G04 Layer:  VIA CLASS/SOLDERMASK_TOP*
G04 *
G04 Offset:    (0.000 0.000)*
G04 Mirror:    No*
G04 Mode:      Positive*
G04 Rotation:  0*
G04 FullContactRelief:  No*
G04 UndefLineWidth:     0.000*
G04 ================== end FILE IDENTIFICATION RECORD ====================*
%FSLAX34Y34*MOMM*%
%IR0*IPPOS*OFA0.00000B0.00000*MIA0B0*SFA1.00000B1.00000*%
%ADD29R,.8X1.2*%
%ADD20R,.8X1.3*%
%ADD13C,3.*%
%ADD32R,1.3X.8*%
%ADD30C,2.2*%
%ADD24R,2.2X.8*%
%ADD10C,4.2*%
%ADD34R,1.65X.5*%
%ADD23C,1.8*%
%ADD35C,2.8*%
%ADD27R,.8X1.75*%
%ADD28R,1.75X.8*%
%ADD11C,1.75*%
%ADD33R,1.65X.65*%
%ADD17R,2.25X2.25*%
%ADD15R,1.45X1.45*%
%ADD12R,1.75X1.75*%
%ADD19R,1.6X1.3*%
%ADD22R,2.2X3.6*%
%ADD31R,1.3X1.45*%
%ADD14R,1.15X1.6*%
%ADD21R,1.6X1.15*%
%ADD25O,2.35X1.7*%
%ADD26R,5.7X1.7*%
%ADD16R,1.45X1.27*%
%ADD18R,1.65X1.35*%
G75*
%LPD*%
G75*
G36*
G01X1504700Y946500D02*
Y821500D01*
G02X1473700I-15500J0D01*
G01Y946500D01*
G02X1504700I15500J0D01*
G37*
G54D10*
X0Y0D03*
Y889000D03*
Y1333500D03*
Y2222500D03*
G54D11*
X50800Y76200D03*
X25400D03*
X50800Y152400D03*
Y127000D03*
Y101600D03*
X25400Y152400D03*
Y127000D03*
Y101600D03*
X50800Y228600D03*
Y203200D03*
Y177800D03*
X25400Y228600D03*
Y203200D03*
Y177800D03*
X50800Y254000D03*
Y304800D03*
X25400Y254000D03*
Y304800D03*
X50800Y381000D03*
Y355600D03*
Y330200D03*
X25400Y381000D03*
Y355600D03*
Y330200D03*
X50800Y457200D03*
Y431800D03*
Y406400D03*
X25400Y457200D03*
Y431800D03*
Y406400D03*
X50800Y508000D03*
Y482600D03*
X25400Y508000D03*
Y482600D03*
X50800Y609600D03*
Y584200D03*
Y558800D03*
X25400Y609600D03*
Y584200D03*
Y558800D03*
X50800Y685800D03*
Y660400D03*
Y635000D03*
X25400Y685800D03*
Y660400D03*
Y635000D03*
X50800Y762000D03*
Y736600D03*
Y711200D03*
X25400Y762000D03*
Y736600D03*
Y711200D03*
X50800Y838200D03*
Y812800D03*
X25400Y838200D03*
Y812800D03*
X50800Y1435100D03*
Y1409700D03*
X25400Y1435100D03*
Y1409700D03*
X50800Y1511300D03*
Y1485900D03*
Y1460500D03*
X25400Y1511300D03*
Y1485900D03*
Y1460500D03*
X50800Y1587500D03*
Y1562100D03*
Y1536700D03*
X25400Y1587500D03*
Y1562100D03*
Y1536700D03*
X50800Y1663700D03*
Y1638300D03*
X25400Y1663700D03*
Y1638300D03*
X50800Y1739900D03*
Y1714500D03*
Y1689100D03*
X25400Y1739900D03*
Y1714500D03*
Y1689100D03*
X50800Y1816100D03*
Y1790700D03*
Y1765300D03*
X25400Y1816100D03*
Y1790700D03*
Y1765300D03*
X50800Y1892300D03*
Y1841500D03*
X25400Y1892300D03*
Y1841500D03*
X50800Y1968500D03*
Y1943100D03*
Y1917700D03*
X25400Y1968500D03*
Y1943100D03*
Y1917700D03*
X50800Y2044700D03*
Y2019300D03*
Y1993900D03*
X25400Y2044700D03*
Y2019300D03*
Y1993900D03*
X50800Y2095500D03*
Y2070100D03*
X25400Y2095500D03*
Y2070100D03*
X50800Y2171700D03*
Y2146300D03*
X25400Y2171700D03*
Y2146300D03*
X76200Y76200D03*
Y152400D03*
Y127000D03*
Y101600D03*
Y228600D03*
Y203200D03*
Y177800D03*
Y254000D03*
Y304800D03*
Y381000D03*
Y355600D03*
Y330200D03*
Y457200D03*
Y431800D03*
Y406400D03*
Y508000D03*
Y482600D03*
Y609600D03*
Y584200D03*
Y558800D03*
Y685800D03*
Y660400D03*
Y635000D03*
Y762000D03*
Y736600D03*
Y711200D03*
Y838200D03*
Y812800D03*
Y1435100D03*
Y1409700D03*
Y1511300D03*
Y1485900D03*
Y1460500D03*
Y1587500D03*
Y1562100D03*
Y1536700D03*
Y1663700D03*
Y1638300D03*
Y1739900D03*
Y1714500D03*
Y1689100D03*
Y1816100D03*
Y1790700D03*
Y1765300D03*
Y1892300D03*
Y1841500D03*
Y1968500D03*
Y1943100D03*
Y1917700D03*
Y2044700D03*
Y2019300D03*
Y1993900D03*
Y2095500D03*
Y2070100D03*
Y2171700D03*
Y2146300D03*
X203200Y1733550D03*
X254000D03*
X304800D03*
G54D20*
X196850Y895950D03*
X206350Y869950D03*
X196850D03*
X215850Y895950D03*
Y869950D03*
X1241450Y1041700D03*
X1260450D03*
Y1015700D03*
X1250950D03*
X1241450D03*
G54D21*
X196850Y1501750D03*
Y1482750D03*
Y1622400D03*
Y1603400D03*
X222250Y1508100D03*
Y1489100D03*
Y1628750D03*
Y1609750D03*
X381000Y612800D03*
Y631800D03*
X406400Y1438250D03*
Y1419250D03*
X425450Y1393850D03*
Y1412850D03*
Y1457350D03*
Y1476350D03*
X400050Y1463700D03*
Y1482700D03*
X412750Y1533550D03*
Y1552550D03*
X463550Y1393850D03*
Y1412850D03*
X444500Y1393850D03*
Y1412850D03*
X482600Y1393850D03*
Y1412850D03*
X603250Y1584350D03*
Y1603350D03*
X685800Y1438300D03*
X711200D03*
X685800Y1457300D03*
X711200D03*
X1035050Y1063600D03*
Y1044600D03*
X1098550Y1133500D03*
X1079500D03*
X1117600Y1070000D03*
Y1089000D03*
X1098550Y1152500D03*
X1079500D03*
X1174750Y117500D03*
Y136500D03*
Y1025550D03*
Y1044550D03*
X1136650Y1070000D03*
Y1089000D03*
X1174750D03*
Y1070000D03*
X1193800D03*
Y1089000D03*
X1250950D03*
Y1070000D03*
X1270000Y1089000D03*
Y1070000D03*
X1244600Y1203350D03*
Y1222350D03*
X1289050Y1025550D03*
Y1044550D03*
X1301750Y1203350D03*
Y1222350D03*
X1397000Y1203350D03*
X1416050D03*
X1358900D03*
X1397000Y1222350D03*
X1416050D03*
X1358900D03*
G54D12*
X50800Y50800D03*
X25400D03*
X50800Y279400D03*
X25400D03*
X50800Y533400D03*
X25400D03*
X50800Y787400D03*
X25400D03*
X50800Y1384300D03*
X25400D03*
X50800Y1612900D03*
X25400D03*
X50800Y1866900D03*
X25400D03*
X50800Y2120900D03*
X25400D03*
X76200Y50800D03*
Y279400D03*
Y533400D03*
Y787400D03*
Y1384300D03*
Y1612900D03*
Y1866900D03*
Y2120900D03*
X146050Y2165350D03*
X330200Y1733550D03*
X603250Y1079500D03*
X692150Y1638300D03*
X1174750Y933450D03*
X1454150Y203200D03*
Y304800D03*
Y406400D03*
Y508000D03*
Y609600D03*
Y711200D03*
Y812800D03*
Y914400D03*
G54D30*
X660400Y1422400D03*
Y1454150D03*
X1092200Y977900D03*
X1130300D03*
X1092200Y1028700D03*
X1187450Y158750D03*
Y88900D03*
X1149350Y1244600D03*
Y1295400D03*
X1231900Y1174750D03*
X1263650D03*
X1339850Y1047750D03*
Y1016000D03*
X1301750Y1174750D03*
G54D31*
X685800Y1391600D03*
Y1415100D03*
X711200Y1391600D03*
Y1415100D03*
G54D22*
X160300Y1676400D03*
X195300D03*
X395250Y1733550D03*
X430250D03*
X966750Y1422400D03*
X1001750D03*
G54D13*
X76200Y0D03*
Y2222500D03*
X1447800Y0D03*
Y2222500D03*
G54D14*
X123800Y685800D03*
X104800D03*
X123800Y660400D03*
X104800D03*
X123800Y1892300D03*
X104800D03*
X123800Y1866900D03*
X104800D03*
X123800Y1841500D03*
X104800D03*
Y1917700D03*
X123800D03*
X104800Y1943100D03*
X123800D03*
X104800Y1968500D03*
X123800D03*
X104800Y1993900D03*
X123800D03*
X365150Y1866900D03*
Y1841500D03*
Y1898650D03*
Y1981200D03*
Y1924050D03*
Y1955800D03*
Y2038350D03*
Y2012950D03*
Y2095500D03*
Y2127250D03*
Y2070100D03*
Y2152650D03*
Y2184400D03*
X384150Y1866900D03*
Y1841500D03*
Y1898650D03*
Y1981200D03*
Y1924050D03*
Y1955800D03*
Y2038350D03*
Y2012950D03*
Y2095500D03*
Y2127250D03*
Y2070100D03*
Y2152650D03*
Y2184400D03*
X1406500Y203200D03*
X1387500D03*
X1406500Y177800D03*
X1387500D03*
X1406500Y304800D03*
X1387500D03*
X1406500Y279400D03*
X1387500D03*
X1406500Y406400D03*
X1387500D03*
X1406500Y508000D03*
X1387500D03*
X1406500Y482600D03*
X1387500D03*
X1406500Y609600D03*
X1387500D03*
X1406500Y584200D03*
X1387500D03*
X1406500Y685800D03*
X1387500D03*
X1406500Y711200D03*
X1387500D03*
X1406500Y812800D03*
X1387500D03*
X1406500Y787400D03*
X1387500D03*
X1406500Y914400D03*
X1387500D03*
G54D23*
X146050Y2190750D03*
X628650Y1079500D03*
X717550Y1536700D03*
X692150D03*
X717550Y1562100D03*
X692150D03*
X717550Y1587500D03*
X692150D03*
X717550Y1612900D03*
X692150D03*
X717550Y1638300D03*
X1200150Y933450D03*
X1454150Y177800D03*
Y279400D03*
Y381000D03*
Y482600D03*
Y584200D03*
Y685800D03*
Y787400D03*
Y889000D03*
G54D32*
X1060150Y1070000D03*
Y1079500D03*
Y1089000D03*
X1086150D03*
Y1079500D03*
Y1070000D03*
G54D15*
X111000Y742450D03*
Y781550D03*
Y805950D03*
Y845050D03*
Y1517150D03*
Y1587000D03*
Y1556250D03*
Y1626100D03*
X187200Y501150D03*
Y540250D03*
X184150Y665750D03*
Y741950D03*
Y704850D03*
X143000Y742450D03*
X184150Y805450D03*
Y781050D03*
X143000Y781550D03*
Y805950D03*
X184150Y844550D03*
X143000Y845050D03*
Y1517150D03*
Y1587000D03*
Y1556250D03*
Y1626100D03*
X219200Y501150D03*
Y540250D03*
X216150Y665750D03*
Y741950D03*
Y704850D03*
Y805450D03*
Y781050D03*
Y844550D03*
X879600Y659900D03*
X847600D03*
X879600Y699000D03*
X847600D03*
G54D33*
X1126900Y1279750D03*
Y1273250D03*
Y1266750D03*
Y1260250D03*
X1082900D03*
Y1266750D03*
Y1273250D03*
Y1279750D03*
G54D24*
X254000Y596900D03*
Y609600D03*
Y622300D03*
Y635000D03*
Y647700D03*
Y660400D03*
Y673100D03*
Y685800D03*
Y736600D03*
Y749300D03*
Y762000D03*
Y698500D03*
Y711200D03*
Y774700D03*
Y787400D03*
Y800100D03*
Y812800D03*
Y825500D03*
Y838200D03*
Y850900D03*
X258300Y1422400D03*
Y1435100D03*
Y1447800D03*
Y1460500D03*
Y1473200D03*
Y1485900D03*
Y1498600D03*
Y1511300D03*
Y1543050D03*
Y1555750D03*
Y1568450D03*
Y1581150D03*
Y1593850D03*
Y1606550D03*
Y1619250D03*
Y1631950D03*
X347000Y609600D03*
Y596900D03*
Y685800D03*
Y673100D03*
Y660400D03*
Y647700D03*
Y635000D03*
Y622300D03*
Y762000D03*
Y749300D03*
Y736600D03*
Y711200D03*
Y698500D03*
Y838200D03*
Y825500D03*
Y812800D03*
Y800100D03*
Y787400D03*
Y774700D03*
Y850900D03*
X351300Y1447800D03*
Y1435100D03*
Y1422400D03*
Y1511300D03*
Y1498600D03*
Y1485900D03*
Y1473200D03*
Y1460500D03*
Y1593850D03*
Y1581150D03*
Y1568450D03*
Y1555750D03*
Y1543050D03*
Y1631950D03*
Y1619250D03*
Y1606550D03*
G54D16*
X111000Y755650D03*
Y768350D03*
Y819150D03*
Y831850D03*
Y1600200D03*
Y1530350D03*
Y1543050D03*
Y1612900D03*
X187200Y514350D03*
Y527050D03*
X184150Y678950D03*
Y755150D03*
Y691650D03*
X143000Y755650D03*
X184150Y818650D03*
Y831350D03*
Y767850D03*
X143000Y768350D03*
Y831850D03*
Y819150D03*
Y1600200D03*
Y1543050D03*
Y1530350D03*
Y1612900D03*
X219200Y527050D03*
Y514350D03*
X216150Y678950D03*
Y755150D03*
Y691650D03*
Y831350D03*
Y818650D03*
Y767850D03*
X879600Y685800D03*
Y673100D03*
X847600D03*
Y685800D03*
G54D25*
X247100Y1898650D03*
Y1841500D03*
Y1866900D03*
Y1955800D03*
Y1981200D03*
Y1924050D03*
Y2012950D03*
Y2038350D03*
Y2070100D03*
Y2095500D03*
Y2127250D03*
Y2152650D03*
Y2184400D03*
Y2209800D03*
X337100Y1898650D03*
Y1866900D03*
Y1841500D03*
Y1981200D03*
Y1955800D03*
Y1924050D03*
Y2038350D03*
Y2012950D03*
Y2095500D03*
Y2070100D03*
Y2127250D03*
Y2152650D03*
Y2209800D03*
Y2184400D03*
G54D34*
X1279750Y1247300D03*
Y1252300D03*
Y1257300D03*
Y1262300D03*
Y1267300D03*
X1323750D03*
Y1262300D03*
Y1257300D03*
Y1252300D03*
Y1247300D03*
G54D26*
X440100Y1651000D03*
X525100D03*
G54D17*
X127000Y1362800D03*
Y1405800D03*
X120650Y2023200D03*
Y2066200D03*
G54D35*
X1536700Y0D03*
Y889000D03*
Y1333500D03*
Y2222500D03*
G54D18*
X107950Y1704450D03*
Y1686450D03*
X463550Y1787000D03*
Y1769000D03*
X609600Y1400700D03*
Y1418700D03*
X1060450Y1134000D03*
Y1152000D03*
X1085850Y1317100D03*
Y1299100D03*
X1066800Y1450450D03*
Y1432450D03*
X1155700Y1070500D03*
Y1088500D03*
X1244600Y1254650D03*
Y1272650D03*
X1301750Y1292750D03*
Y1310750D03*
X1377950Y1203850D03*
Y1221850D03*
X1435100D03*
Y1203850D03*
G54D27*
X514100Y1441100D03*
X506100D03*
Y1556100D03*
X514100D03*
X586100Y1441100D03*
X578100D03*
X570100D03*
X562100D03*
X554100D03*
X546100D03*
X538100D03*
X530100D03*
X522100D03*
Y1556100D03*
X530100D03*
X538100D03*
X546100D03*
X554100D03*
X562100D03*
X570100D03*
X578100D03*
X586100D03*
X1123950Y1135050D03*
Y1189050D03*
X1162050Y1135050D03*
X1149350D03*
X1136650D03*
Y1189050D03*
X1149350D03*
X1162050D03*
X1416050Y1249350D03*
X1403350D03*
X1390650D03*
X1377950D03*
Y1303350D03*
X1390650D03*
X1403350D03*
X1416050D03*
G54D19*
X133350Y1703950D03*
Y1686950D03*
X171450Y872000D03*
Y889000D03*
X228600Y611750D03*
Y594750D03*
X273050Y1274200D03*
Y1291200D03*
X222250Y1437250D03*
Y1420250D03*
Y1557900D03*
Y1540900D03*
X342900Y884800D03*
Y867800D03*
X355600Y1293250D03*
Y1310250D03*
X387350Y1437250D03*
Y1420250D03*
Y1557900D03*
Y1540900D03*
X438150Y1786500D03*
Y1769500D03*
X457200Y1464700D03*
Y1481700D03*
X508000Y1693300D03*
Y1710300D03*
X482600Y1693300D03*
Y1710300D03*
X558800Y1401200D03*
Y1418200D03*
X533400Y1401200D03*
Y1418200D03*
X558800Y1602350D03*
Y1585350D03*
X635000Y1519800D03*
Y1502800D03*
X628650Y1602350D03*
Y1585350D03*
X736600Y1293250D03*
Y1310250D03*
X730250Y1786500D03*
Y1769500D03*
X1035050Y1083700D03*
Y1100700D03*
X1041400Y1449950D03*
Y1432950D03*
X1117600Y1043550D03*
Y1026550D03*
X1098550Y1185300D03*
Y1202300D03*
X1085850Y1240400D03*
Y1223400D03*
X1104900Y1240400D03*
Y1223400D03*
Y1299600D03*
Y1316600D03*
X1193800Y118500D03*
Y135500D03*
X1136650Y1026550D03*
Y1043550D03*
X1155700Y1026550D03*
Y1043550D03*
X1212850Y1026550D03*
Y1043550D03*
X1263650Y1221350D03*
Y1204350D03*
X1308100Y1026550D03*
Y1043550D03*
X1339850Y1204350D03*
Y1221350D03*
X1282700D03*
Y1204350D03*
X1320800Y1293250D03*
Y1310250D03*
X1358900Y1293250D03*
Y1310250D03*
G54D28*
X488600Y1458600D03*
Y1466600D03*
Y1474600D03*
Y1482600D03*
Y1490600D03*
Y1498600D03*
Y1506600D03*
Y1514600D03*
Y1522600D03*
Y1530600D03*
Y1538600D03*
X603600Y1522600D03*
Y1514600D03*
Y1506600D03*
Y1498600D03*
Y1490600D03*
Y1482600D03*
Y1474600D03*
Y1466600D03*
Y1458600D03*
Y1538600D03*
Y1530600D03*
G54D29*
X457200Y2208600D03*
X466700Y2185600D03*
X447700D03*
X857250Y913200D03*
X866750Y890200D03*
X847750D03*
X895350Y913200D03*
X885850Y890200D03*
X971550Y913200D03*
X962050Y890200D03*
X933450Y913200D03*
X942950Y890200D03*
X923950D03*
X904850D03*
X981050D03*
M02*
