G04 ================== begin FILE IDENTIFICATION RECORD ==================*
G04 Layout Name:  d:/Project/Circuit/BVP/04v3/pcb/BVP_04V3.brd*
G04 Film Name:    MASK_BOT*
G04 File Format:  Gerber RS274X*
G04 File Origin:  Cadence Allegro 16.6-S026*
G04 Origin Date:  Wed Apr 30 16:30:29 2014*
G04 *
G04 Layer:  PACKAGE GEOMETRY/SOLDERMASK_BOTTOM*
G04 Layer:  PIN/SOLDERMASK_BOTTOM*
G04 Layer:  VIA CLASS/SOLDERMASK_BOTTOM*
G04 *
G04 Offset:    (0.000 0.000)*
G04 Mirror:    No*
G04 Mode:      Positive*
G04 Rotation:  0*
G04 FullContactRelief:  No*
G04 UndefLineWidth:     0.000*
G04 ================== end FILE IDENTIFICATION RECORD ====================*
%FSLAX34Y34*MOMM*%
%IR0*IPPOS*OFA0.00000B0.00000*MIA0B0*SFA1.00000B1.00000*%
%ADD13C,3.*%
%ADD15C,2.2*%
%ADD10C,4.2*%
%ADD14C,1.8*%
%ADD16C,2.8*%
%ADD11C,1.75*%
%ADD12R,1.75X1.75*%
%LPD*%
G75*
G54D10*
X0Y0D03*
Y889000D03*
Y1333500D03*
Y2222500D03*
G54D11*
X50800Y76200D03*
X25400D03*
X50800Y152400D03*
Y127000D03*
Y101600D03*
X25400Y152400D03*
Y127000D03*
Y101600D03*
X50800Y228600D03*
Y203200D03*
Y177800D03*
X25400Y228600D03*
Y203200D03*
Y177800D03*
X50800Y254000D03*
Y304800D03*
X25400Y254000D03*
Y304800D03*
X50800Y381000D03*
Y355600D03*
Y330200D03*
X25400Y381000D03*
Y355600D03*
Y330200D03*
X50800Y457200D03*
Y431800D03*
Y406400D03*
X25400Y457200D03*
Y431800D03*
Y406400D03*
X50800Y508000D03*
Y482600D03*
X25400Y508000D03*
Y482600D03*
X50800Y609600D03*
Y584200D03*
Y558800D03*
X25400Y609600D03*
Y584200D03*
Y558800D03*
X50800Y685800D03*
Y660400D03*
Y635000D03*
X25400Y685800D03*
Y660400D03*
Y635000D03*
X50800Y762000D03*
Y736600D03*
Y711200D03*
X25400Y762000D03*
Y736600D03*
Y711200D03*
X50800Y838200D03*
Y812800D03*
X25400Y838200D03*
Y812800D03*
X50800Y1435100D03*
Y1409700D03*
X25400Y1435100D03*
Y1409700D03*
X50800Y1511300D03*
Y1485900D03*
Y1460500D03*
X25400Y1511300D03*
Y1485900D03*
Y1460500D03*
X50800Y1587500D03*
Y1562100D03*
Y1536700D03*
X25400Y1587500D03*
Y1562100D03*
Y1536700D03*
X50800Y1663700D03*
Y1638300D03*
X25400Y1663700D03*
Y1638300D03*
X50800Y1739900D03*
Y1714500D03*
Y1689100D03*
X25400Y1739900D03*
Y1714500D03*
Y1689100D03*
X50800Y1816100D03*
Y1790700D03*
Y1765300D03*
X25400Y1816100D03*
Y1790700D03*
Y1765300D03*
X50800Y1892300D03*
Y1841500D03*
X25400Y1892300D03*
Y1841500D03*
X50800Y1968500D03*
Y1943100D03*
Y1917700D03*
X25400Y1968500D03*
Y1943100D03*
Y1917700D03*
X50800Y2044700D03*
Y2019300D03*
Y1993900D03*
X25400Y2044700D03*
Y2019300D03*
Y1993900D03*
X50800Y2095500D03*
Y2070100D03*
X25400Y2095500D03*
Y2070100D03*
X50800Y2171700D03*
Y2146300D03*
X25400Y2171700D03*
Y2146300D03*
X76200Y76200D03*
Y152400D03*
Y127000D03*
Y101600D03*
Y228600D03*
Y203200D03*
Y177800D03*
Y254000D03*
Y304800D03*
Y381000D03*
Y355600D03*
Y330200D03*
Y457200D03*
Y431800D03*
Y406400D03*
Y508000D03*
Y482600D03*
Y609600D03*
Y584200D03*
Y558800D03*
Y685800D03*
Y660400D03*
Y635000D03*
Y762000D03*
Y736600D03*
Y711200D03*
Y838200D03*
Y812800D03*
Y1435100D03*
Y1409700D03*
Y1511300D03*
Y1485900D03*
Y1460500D03*
Y1587500D03*
Y1562100D03*
Y1536700D03*
Y1663700D03*
Y1638300D03*
Y1739900D03*
Y1714500D03*
Y1689100D03*
Y1816100D03*
Y1790700D03*
Y1765300D03*
Y1892300D03*
Y1841500D03*
Y1968500D03*
Y1943100D03*
Y1917700D03*
Y2044700D03*
Y2019300D03*
Y1993900D03*
Y2095500D03*
Y2070100D03*
Y2171700D03*
Y2146300D03*
X203200Y1733550D03*
X254000D03*
X304800D03*
G54D12*
X50800Y50800D03*
X25400D03*
X50800Y279400D03*
X25400D03*
X50800Y533400D03*
X25400D03*
X50800Y787400D03*
X25400D03*
X50800Y1384300D03*
X25400D03*
X50800Y1612900D03*
X25400D03*
X50800Y1866900D03*
X25400D03*
X50800Y2120900D03*
X25400D03*
X76200Y50800D03*
Y279400D03*
Y533400D03*
Y787400D03*
Y1384300D03*
Y1612900D03*
Y1866900D03*
Y2120900D03*
X146050Y2165350D03*
X330200Y1733550D03*
X603250Y1079500D03*
X692150Y1638300D03*
X1174750Y933450D03*
X1454150Y203200D03*
Y304800D03*
Y406400D03*
Y508000D03*
Y609600D03*
Y711200D03*
Y812800D03*
Y914400D03*
G54D13*
X76200Y0D03*
Y2222500D03*
X1447800Y0D03*
Y2222500D03*
G54D14*
X146050Y2190750D03*
X628650Y1079500D03*
X717550Y1536700D03*
X692150D03*
X717550Y1562100D03*
X692150D03*
X717550Y1587500D03*
X692150D03*
X717550Y1612900D03*
X692150D03*
X717550Y1638300D03*
X1200150Y933450D03*
X1454150Y177800D03*
Y279400D03*
Y381000D03*
Y482600D03*
Y584200D03*
Y685800D03*
Y787400D03*
Y889000D03*
G54D15*
X660400Y1422400D03*
Y1454150D03*
X1092200Y977900D03*
X1130300D03*
X1092200Y1028700D03*
X1187450Y158750D03*
Y88900D03*
X1149350Y1244600D03*
Y1295400D03*
X1231900Y1174750D03*
X1263650D03*
X1339850Y1047750D03*
Y1016000D03*
X1301750Y1174750D03*
G54D16*
X1536700Y0D03*
Y889000D03*
Y1333500D03*
Y2222500D03*
M02*
